<svg xmlns="http://www.w3.org/2000/svg" version="1.1" xmlns:xlink="http://www.w3.org/1999/xlink" xmlns:svgjs="http://svgjs.com/svgjs" width="1440" height="560" preserveAspectRatio="none" viewBox="0 0 1440 560"><g mask="url(&quot;#SvgjsMask4353&quot;)" fill="none"><rect width="1440" height="560" x="0" y="0" fill="url(#SvgjsLinearGradient4354)"></rect><path d="M-39.57 374.17L-39.57 374.17" stroke="rgba(0, 0, 0, 1)" stroke-width="1.5"></path><path d="M-39.57 374.17L53.6 387.32" stroke="rgba(0, 0, 0, 1)" stroke-width="1.5"></path><path d="M-52.37 547.43L-52.37 547.43" stroke="rgba(0, 0, 0, 1)" stroke-width="1.5"></path><path d="M-52.37 547.43L43.5 550.24" stroke="rgba(0, 0, 0, 1)" stroke-width="1.5"></path><path d="M-52.37 547.43L-109.58 642.57" stroke="rgba(0, 0, 0, 1)" stroke-width="1.5"></path><path d="M-52.37 547.43L40.59 684.1" stroke="rgba(0, 0, 0, 1)" stroke-width="1.5"></path><path d="M-52.37 547.43L-39.57 374.17" stroke="rgba(0, 0, 0, 1)" stroke-width="1.5"></path><path d="M-109.58 642.57L-109.58 642.57" stroke="rgba(0, 0, 0, 1)" stroke-width="1.5"></path><path d="M-109.58 642.57L40.59 684.1" stroke="rgba(0, 0, 0, 1)" stroke-width="1.5"></path><path d="M-109.58 642.57L43.5 550.24" stroke="rgba(0, 0, 0, 1)" stroke-width="1.5"></path><path d="M-109.58 642.57L-39.57 374.17" stroke="rgba(0, 0, 0, 1)" stroke-width="1.5"></path><path d="M-109.58 642.57L53.6 387.32" stroke="rgba(0, 0, 0, 1)" stroke-width="1.5"></path><path d="M-109.58 642.57L240.62 670.14" stroke="rgba(0, 0, 0, 1)" stroke-width="1.5"></path><path d="M53.6 387.32L53.6 387.32" stroke="rgba(0, 0, 0, 1)" stroke-width="1.5"></path><path d="M53.6 387.32L43.5 550.24" stroke="rgba(0, 0, 0, 1)" stroke-width="1.5"></path><path d="M53.6 387.32L-52.37 547.43" stroke="rgba(0, 0, 0, 1)" stroke-width="1.5"></path><path d="M43.5 550.24L43.5 550.24" stroke="rgba(0, 0, 0, 1)" stroke-width="1.5"></path><path d="M43.5 550.24L40.59 684.1" stroke="rgba(0, 0, 0, 1)" stroke-width="1.5"></path><path d="M43.5 550.24L216.99 511.92" stroke="rgba(0, 0, 0, 1)" stroke-width="1.5"></path><path d="M43.5 550.24L-39.57 374.17" stroke="rgba(0, 0, 0, 1)" stroke-width="1.5"></path><path d="M40.59 684.1L40.59 684.1" stroke="rgba(0, 0, 0, 1)" stroke-width="1.5"></path><path d="M40.59 684.1L240.62 670.14" stroke="rgba(0, 0, 0, 1)" stroke-width="1.5"></path><path d="M40.59 684.1L216.99 511.92" stroke="rgba(0, 0, 0, 1)" stroke-width="1.5"></path><path d="M245.37 341.69L245.37 341.69" stroke="rgba(0, 0, 0, 1)" stroke-width="1.5"></path><path d="M245.37 341.69L350.29 400.28" stroke="rgba(0, 0, 0, 1)" stroke-width="1.5"></path><path d="M245.37 341.69L216.99 511.92" stroke="rgba(0, 0, 0, 1)" stroke-width="1.5"></path><path d="M245.37 341.69L53.6 387.32" stroke="rgba(0, 0, 0, 1)" stroke-width="1.5"></path><path d="M216.99 511.92L216.99 511.92" stroke="rgba(0, 0, 0, 1)" stroke-width="1.5"></path><path d="M216.99 511.92L349.64 549.11" stroke="rgba(0, 0, 0, 1)" stroke-width="1.5"></path><path d="M216.99 511.92L240.62 670.14" stroke="rgba(0, 0, 0, 1)" stroke-width="1.5"></path><path d="M240.62 670.14L240.62 670.14" stroke="rgba(0, 0, 0, 1)" stroke-width="1.5"></path><path d="M240.62 670.14L391.03 698.63" stroke="rgba(0, 0, 0, 1)" stroke-width="1.5"></path><path d="M240.62 670.14L349.64 549.11" stroke="rgba(0, 0, 0, 1)" stroke-width="1.5"></path><path d="M240.62 670.14L43.5 550.24" stroke="rgba(0, 0, 0, 1)" stroke-width="1.5"></path><path d="M350.29 400.28L350.29 400.28" stroke="rgba(0, 0, 0, 1)" stroke-width="1.5"></path><path d="M350.29 400.28L490.9 374.35" stroke="rgba(0, 0, 0, 1)" stroke-width="1.5"></path><path d="M350.29 400.28L349.64 549.11" stroke="rgba(0, 0, 0, 1)" stroke-width="1.5"></path><path d="M349.64 549.11L349.64 549.11" stroke="rgba(0, 0, 0, 1)" stroke-width="1.5"></path><path d="M391.03 698.63L391.03 698.63" stroke="rgba(0, 0, 0, 1)" stroke-width="1.5"></path><path d="M391.03 698.63L540.02 656.23" stroke="rgba(0, 0, 0, 1)" stroke-width="1.5"></path><path d="M391.03 698.63L349.64 549.11" stroke="rgba(0, 0, 0, 1)" stroke-width="1.5"></path><path d="M391.03 698.63L530.39 493.71" stroke="rgba(0, 0, 0, 1)" stroke-width="1.5"></path><path d="M391.03 698.63L216.99 511.92" stroke="rgba(0, 0, 0, 1)" stroke-width="1.5"></path><path d="M391.03 698.63L350.29 400.28" stroke="rgba(0, 0, 0, 1)" stroke-width="1.5"></path><path d="M490.9 374.35L490.9 374.35" stroke="rgba(0, 0, 0, 1)" stroke-width="1.5"></path><path d="M490.9 374.35L530.39 493.71" stroke="rgba(0, 0, 0, 1)" stroke-width="1.5"></path><path d="M490.9 374.35L646.05 390.97" stroke="rgba(0, 0, 0, 1)" stroke-width="1.5"></path><path d="M490.9 374.35L349.64 549.11" stroke="rgba(0, 0, 0, 1)" stroke-width="1.5"></path><path d="M490.9 374.35L671.17 529.39" stroke="rgba(0, 0, 0, 1)" stroke-width="1.5"></path><path d="M530.39 493.71L530.39 493.71" stroke="rgba(0, 0, 0, 1)" stroke-width="1.5"></path><path d="M530.39 493.71L671.17 529.39" stroke="rgba(0, 0, 0, 1)" stroke-width="1.5"></path><path d="M530.39 493.71L646.05 390.97" stroke="rgba(0, 0, 0, 1)" stroke-width="1.5"></path><path d="M530.39 493.71L540.02 656.23" stroke="rgba(0, 0, 0, 1)" stroke-width="1.5"></path><path d="M540.02 656.23L540.02 656.23" stroke="rgba(0, 0, 0, 1)" stroke-width="1.5"></path><path d="M540.02 656.23L687.2 642.92" stroke="rgba(0, 0, 0, 1)" stroke-width="1.5"></path><path d="M700.61 244.47L700.61 244.47" stroke="rgba(0, 0, 0, 1)" stroke-width="1.5"></path><path d="M700.61 244.47L811.74 229.46" stroke="rgba(0, 0, 0, 1)" stroke-width="1.5"></path><path d="M646.05 390.97L646.05 390.97" stroke="rgba(0, 0, 0, 1)" stroke-width="1.5"></path><path d="M646.05 390.97L671.17 529.39" stroke="rgba(0, 0, 0, 1)" stroke-width="1.5"></path><path d="M646.05 390.97L700.61 244.47" stroke="rgba(0, 0, 0, 1)" stroke-width="1.5"></path><path d="M671.17 529.39L671.17 529.39" stroke="rgba(0, 0, 0, 1)" stroke-width="1.5"></path><path d="M671.17 529.39L687.2 642.92" stroke="rgba(0, 0, 0, 1)" stroke-width="1.5"></path><path d="M671.17 529.39L839.75 522.5" stroke="rgba(0, 0, 0, 1)" stroke-width="1.5"></path><path d="M671.17 529.39L540.02 656.23" stroke="rgba(0, 0, 0, 1)" stroke-width="1.5"></path><path d="M687.2 642.92L687.2 642.92" stroke="rgba(0, 0, 0, 1)" stroke-width="1.5"></path><path d="M687.2 642.92L818.49 644.41" stroke="rgba(0, 0, 0, 1)" stroke-width="1.5"></path><path d="M687.2 642.92L839.75 522.5" stroke="rgba(0, 0, 0, 1)" stroke-width="1.5"></path><path d="M838.22 102.21L838.22 102.21" stroke="rgba(0, 0, 0, 1)" stroke-width="1.5"></path><path d="M838.22 102.21L811.74 229.46" stroke="rgba(0, 0, 0, 1)" stroke-width="1.5"></path><path d="M838.22 102.21L953.74 205.66" stroke="rgba(0, 0, 0, 1)" stroke-width="1.5"></path><path d="M838.22 102.21L700.61 244.47" stroke="rgba(0, 0, 0, 1)" stroke-width="1.5"></path><path d="M838.22 102.21L977.74 -66.73" stroke="rgba(0, 0, 0, 1)" stroke-width="1.5"></path><path d="M838.22 102.21L989.89 351.08" stroke="rgba(0, 0, 0, 1)" stroke-width="1.5"></path><path d="M811.74 229.46L811.74 229.46" stroke="rgba(0, 0, 0, 1)" stroke-width="1.5"></path><path d="M811.74 229.46L953.74 205.66" stroke="rgba(0, 0, 0, 1)" stroke-width="1.5"></path><path d="M858.23 409.27L858.23 409.27" stroke="rgba(0, 0, 0, 1)" stroke-width="1.5"></path><path d="M858.23 409.27L839.75 522.5" stroke="rgba(0, 0, 0, 1)" stroke-width="1.5"></path><path d="M858.23 409.27L989.89 351.08" stroke="rgba(0, 0, 0, 1)" stroke-width="1.5"></path><path d="M858.23 409.27L977.38 549.81" stroke="rgba(0, 0, 0, 1)" stroke-width="1.5"></path><path d="M839.75 522.5L839.75 522.5" stroke="rgba(0, 0, 0, 1)" stroke-width="1.5"></path><path d="M839.75 522.5L818.49 644.41" stroke="rgba(0, 0, 0, 1)" stroke-width="1.5"></path><path d="M839.75 522.5L977.38 549.81" stroke="rgba(0, 0, 0, 1)" stroke-width="1.5"></path><path d="M839.75 522.5L989.89 351.08" stroke="rgba(0, 0, 0, 1)" stroke-width="1.5"></path><path d="M818.49 644.41L818.49 644.41" stroke="rgba(0, 0, 0, 1)" stroke-width="1.5"></path><path d="M818.49 644.41L977.02 706.76" stroke="rgba(0, 0, 0, 1)" stroke-width="1.5"></path><path d="M818.49 644.41L977.38 549.81" stroke="rgba(0, 0, 0, 1)" stroke-width="1.5"></path><path d="M818.49 644.41L671.17 529.39" stroke="rgba(0, 0, 0, 1)" stroke-width="1.5"></path><path d="M977.74 -66.73L977.74 -66.73" stroke="rgba(0, 0, 0, 1)" stroke-width="1.5"></path><path d="M977.74 -66.73L1100.34 -52.42" stroke="rgba(0, 0, 0, 1)" stroke-width="1.5"></path><path d="M953.74 205.66L953.74 205.66" stroke="rgba(0, 0, 0, 1)" stroke-width="1.5"></path><path d="M953.74 205.66L989.89 351.08" stroke="rgba(0, 0, 0, 1)" stroke-width="1.5"></path><path d="M953.74 205.66L1136.26 219.89" stroke="rgba(0, 0, 0, 1)" stroke-width="1.5"></path><path d="M953.74 205.66L858.23 409.27" stroke="rgba(0, 0, 0, 1)" stroke-width="1.5"></path><path d="M989.89 351.08L989.89 351.08" stroke="rgba(0, 0, 0, 1)" stroke-width="1.5"></path><path d="M989.89 351.08L1105.33 388.22" stroke="rgba(0, 0, 0, 1)" stroke-width="1.5"></path><path d="M989.89 351.08L1136.26 219.89" stroke="rgba(0, 0, 0, 1)" stroke-width="1.5"></path><path d="M977.38 549.81L977.38 549.81" stroke="rgba(0, 0, 0, 1)" stroke-width="1.5"></path><path d="M977.38 549.81L977.02 706.76" stroke="rgba(0, 0, 0, 1)" stroke-width="1.5"></path><path d="M977.38 549.81L1143.47 522.55" stroke="rgba(0, 0, 0, 1)" stroke-width="1.5"></path><path d="M977.02 706.76L977.02 706.76" stroke="rgba(0, 0, 0, 1)" stroke-width="1.5"></path><path d="M977.02 706.76L1152.23 657.08" stroke="rgba(0, 0, 0, 1)" stroke-width="1.5"></path><path d="M977.02 706.76L839.75 522.5" stroke="rgba(0, 0, 0, 1)" stroke-width="1.5"></path><path d="M1100.34 -52.42L1100.34 -52.42" stroke="rgba(0, 0, 0, 1)" stroke-width="1.5"></path><path d="M1100.34 -52.42L1244.62 -89.59" stroke="rgba(0, 0, 0, 1)" stroke-width="1.5"></path><path d="M1136.26 219.89L1136.26 219.89" stroke="rgba(0, 0, 0, 1)" stroke-width="1.5"></path><path d="M1136.26 219.89L1261.02 230.61" stroke="rgba(0, 0, 0, 1)" stroke-width="1.5"></path><path d="M1105.33 388.22L1105.33 388.22" stroke="rgba(0, 0, 0, 1)" stroke-width="1.5"></path><path d="M1105.33 388.22L1143.47 522.55" stroke="rgba(0, 0, 0, 1)" stroke-width="1.5"></path><path d="M1105.33 388.22L1136.26 219.89" stroke="rgba(0, 0, 0, 1)" stroke-width="1.5"></path><path d="M1105.33 388.22L1296.3 372.35" stroke="rgba(0, 0, 0, 1)" stroke-width="1.5"></path><path d="M1105.33 388.22L977.38 549.81" stroke="rgba(0, 0, 0, 1)" stroke-width="1.5"></path><path d="M1105.33 388.22L1261.02 230.61" stroke="rgba(0, 0, 0, 1)" stroke-width="1.5"></path><path d="M1143.47 522.55L1143.47 522.55" stroke="rgba(0, 0, 0, 1)" stroke-width="1.5"></path><path d="M1143.47 522.55L1274.14 532.82" stroke="rgba(0, 0, 0, 1)" stroke-width="1.5"></path><path d="M1152.23 657.08L1152.23 657.08" stroke="rgba(0, 0, 0, 1)" stroke-width="1.5"></path><path d="M1152.23 657.08L1143.47 522.55" stroke="rgba(0, 0, 0, 1)" stroke-width="1.5"></path><path d="M1152.23 657.08L1290.18 665.58" stroke="rgba(0, 0, 0, 1)" stroke-width="1.5"></path><path d="M1244.62 -89.59L1244.62 -89.59" stroke="rgba(0, 0, 0, 1)" stroke-width="1.5"></path><path d="M1244.62 -89.59L1249.95 37.61" stroke="rgba(0, 0, 0, 1)" stroke-width="1.5"></path><path d="M1244.62 -89.59L1396.2 -90.06" stroke="rgba(0, 0, 0, 1)" stroke-width="1.5"></path><path d="M1244.62 -89.59L1401.72 74.6" stroke="rgba(0, 0, 0, 1)" stroke-width="1.5"></path><path d="M1244.62 -89.59L977.74 -66.73" stroke="rgba(0, 0, 0, 1)" stroke-width="1.5"></path><path d="M1249.95 37.61L1249.95 37.61" stroke="rgba(0, 0, 0, 1)" stroke-width="1.5"></path><path d="M1249.95 37.61L1401.72 74.6" stroke="rgba(0, 0, 0, 1)" stroke-width="1.5"></path><path d="M1249.95 37.61L1100.34 -52.42" stroke="rgba(0, 0, 0, 1)" stroke-width="1.5"></path><path d="M1249.95 37.61L1261.02 230.61" stroke="rgba(0, 0, 0, 1)" stroke-width="1.5"></path><path d="M1249.95 37.61L1396.2 -90.06" stroke="rgba(0, 0, 0, 1)" stroke-width="1.5"></path><path d="M1261.02 230.61L1261.02 230.61" stroke="rgba(0, 0, 0, 1)" stroke-width="1.5"></path><path d="M1261.02 230.61L1390.13 214.6" stroke="rgba(0, 0, 0, 1)" stroke-width="1.5"></path><path d="M1261.02 230.61L1296.3 372.35" stroke="rgba(0, 0, 0, 1)" stroke-width="1.5"></path><path d="M1261.02 230.61L1401.72 74.6" stroke="rgba(0, 0, 0, 1)" stroke-width="1.5"></path><path d="M1296.3 372.35L1296.3 372.35" stroke="rgba(0, 0, 0, 1)" stroke-width="1.5"></path><path d="M1296.3 372.35L1417.85 402.04" stroke="rgba(0, 0, 0, 1)" stroke-width="1.5"></path><path d="M1296.3 372.35L1274.14 532.82" stroke="rgba(0, 0, 0, 1)" stroke-width="1.5"></path><path d="M1274.14 532.82L1274.14 532.82" stroke="rgba(0, 0, 0, 1)" stroke-width="1.5"></path><path d="M1290.18 665.58L1290.18 665.58" stroke="rgba(0, 0, 0, 1)" stroke-width="1.5"></path><path d="M1290.18 665.58L1414.5 639.75" stroke="rgba(0, 0, 0, 1)" stroke-width="1.5"></path><path d="M1290.18 665.58L1274.14 532.82" stroke="rgba(0, 0, 0, 1)" stroke-width="1.5"></path><path d="M1290.18 665.58L1405.01 559.18" stroke="rgba(0, 0, 0, 1)" stroke-width="1.5"></path><path d="M1290.18 665.58L1143.47 522.55" stroke="rgba(0, 0, 0, 1)" stroke-width="1.5"></path><path d="M1396.2 -90.06L1396.2 -90.06" stroke="rgba(0, 0, 0, 1)" stroke-width="1.5"></path><path d="M1396.2 -90.06L1541.33 -46.08" stroke="rgba(0, 0, 0, 1)" stroke-width="1.5"></path><path d="M1401.72 74.6L1401.72 74.6" stroke="rgba(0, 0, 0, 1)" stroke-width="1.5"></path><path d="M1401.72 74.6L1390.13 214.6" stroke="rgba(0, 0, 0, 1)" stroke-width="1.5"></path><path d="M1401.72 74.6L1396.2 -90.06" stroke="rgba(0, 0, 0, 1)" stroke-width="1.5"></path><path d="M1401.72 74.6L1541.33 -46.08" stroke="rgba(0, 0, 0, 1)" stroke-width="1.5"></path><path d="M1401.72 74.6L1609.73 53.45" stroke="rgba(0, 0, 0, 1)" stroke-width="1.5"></path><path d="M1390.13 214.6L1390.13 214.6" stroke="rgba(0, 0, 0, 1)" stroke-width="1.5"></path><path d="M1390.13 214.6L1296.3 372.35" stroke="rgba(0, 0, 0, 1)" stroke-width="1.5"></path><path d="M1390.13 214.6L1417.85 402.04" stroke="rgba(0, 0, 0, 1)" stroke-width="1.5"></path><path d="M1390.13 214.6L1604.13 193.85" stroke="rgba(0, 0, 0, 1)" stroke-width="1.5"></path><path d="M1417.85 402.04L1417.85 402.04" stroke="rgba(0, 0, 0, 1)" stroke-width="1.5"></path><path d="M1417.85 402.04L1405.01 559.18" stroke="rgba(0, 0, 0, 1)" stroke-width="1.5"></path><path d="M1417.85 402.04L1576.52 392.24" stroke="rgba(0, 0, 0, 1)" stroke-width="1.5"></path><path d="M1417.85 402.04L1563.68 499.13" stroke="rgba(0, 0, 0, 1)" stroke-width="1.5"></path><path d="M1405.01 559.18L1405.01 559.18" stroke="rgba(0, 0, 0, 1)" stroke-width="1.5"></path><path d="M1405.01 559.18L1414.5 639.75" stroke="rgba(0, 0, 0, 1)" stroke-width="1.5"></path><path d="M1405.01 559.18L1274.14 532.82" stroke="rgba(0, 0, 0, 1)" stroke-width="1.5"></path><path d="M1414.5 639.75L1414.5 639.75" stroke="rgba(0, 0, 0, 1)" stroke-width="1.5"></path><path d="M1414.5 639.75L1583.45 668.95" stroke="rgba(0, 0, 0, 1)" stroke-width="1.5"></path><path d="M1414.5 639.75L1274.14 532.82" stroke="rgba(0, 0, 0, 1)" stroke-width="1.5"></path><path d="M1414.5 639.75L1563.68 499.13" stroke="rgba(0, 0, 0, 1)" stroke-width="1.5"></path><path d="M1541.33 -46.08L1541.33 -46.08" stroke="rgba(0, 0, 0, 1)" stroke-width="1.5"></path><path d="M1541.33 -46.08L1609.73 53.45" stroke="rgba(0, 0, 0, 1)" stroke-width="1.5"></path><path d="M1541.33 -46.08L1604.13 193.85" stroke="rgba(0, 0, 0, 1)" stroke-width="1.5"></path><path d="M1541.33 -46.08L1244.62 -89.59" stroke="rgba(0, 0, 0, 1)" stroke-width="1.5"></path><path d="M1609.73 53.45L1609.73 53.45" stroke="rgba(0, 0, 0, 1)" stroke-width="1.5"></path><path d="M1609.73 53.45L1604.13 193.85" stroke="rgba(0, 0, 0, 1)" stroke-width="1.5"></path><path d="M1609.73 53.45L1396.2 -90.06" stroke="rgba(0, 0, 0, 1)" stroke-width="1.5"></path><path d="M1609.73 53.45L1390.13 214.6" stroke="rgba(0, 0, 0, 1)" stroke-width="1.5"></path><path d="M1609.73 53.45L1576.52 392.24" stroke="rgba(0, 0, 0, 1)" stroke-width="1.5"></path><path d="M1604.13 193.85L1604.13 193.85" stroke="rgba(0, 0, 0, 1)" stroke-width="1.5"></path><path d="M1604.13 193.85L1576.52 392.24" stroke="rgba(0, 0, 0, 1)" stroke-width="1.5"></path><path d="M1604.13 193.85L1401.72 74.6" stroke="rgba(0, 0, 0, 1)" stroke-width="1.5"></path><path d="M1576.52 392.24L1576.52 392.24" stroke="rgba(0, 0, 0, 1)" stroke-width="1.5"></path><path d="M1576.52 392.24L1563.68 499.13" stroke="rgba(0, 0, 0, 1)" stroke-width="1.5"></path><path d="M1576.52 392.24L1405.01 559.18" stroke="rgba(0, 0, 0, 1)" stroke-width="1.5"></path><path d="M1576.52 392.24L1390.13 214.6" stroke="rgba(0, 0, 0, 1)" stroke-width="1.5"></path><path d="M1563.68 499.13L1563.68 499.13" stroke="rgba(0, 0, 0, 1)" stroke-width="1.5"></path><path d="M1563.68 499.13L1405.01 559.18" stroke="rgba(0, 0, 0, 1)" stroke-width="1.5"></path><path d="M1563.68 499.13L1583.45 668.95" stroke="rgba(0, 0, 0, 1)" stroke-width="1.5"></path><path d="M1583.45 668.95L1583.45 668.95" stroke="rgba(0, 0, 0, 1)" stroke-width="1.5"></path><path d="M1583.45 668.95L1405.01 559.18" stroke="rgba(0, 0, 0, 1)" stroke-width="1.5"></path><path d="M1583.45 668.95L1576.52 392.24" stroke="rgba(0, 0, 0, 1)" stroke-width="1.5"></path><circle r="5" cx="-39.57" cy="374.17" fill="rgba(0, 0, 0, 1)"></circle><circle r="5" cx="-52.37" cy="547.43" fill="rgba(0, 0, 0, 1)"></circle><circle r="5" cx="-109.58" cy="642.57" fill="rgba(0, 0, 0, 1)"></circle><circle r="5" cx="53.6" cy="387.32" fill="rgba(0, 0, 0, 1)"></circle><circle r="5" cx="43.5" cy="550.24" fill="rgba(0, 0, 0, 1)"></circle><circle r="5" cx="40.59" cy="684.1" fill="rgba(0, 0, 0, 1)"></circle><circle r="5" cx="245.37" cy="341.69" fill="rgba(0, 0, 0, 1)"></circle><circle r="5" cx="216.99" cy="511.92" fill="rgba(0, 0, 0, 1)"></circle><circle r="5" cx="240.62" cy="670.14" fill="rgba(0, 0, 0, 1)"></circle><circle r="5" cx="350.29" cy="400.28" fill="rgba(0, 0, 0, 1)"></circle><circle r="5" cx="349.64" cy="549.11" fill="rgba(0, 0, 0, 1)"></circle><circle r="5" cx="391.03" cy="698.63" fill="rgba(0, 0, 0, 1)"></circle><circle r="5" cx="490.9" cy="374.35" fill="rgba(0, 0, 0, 1)"></circle><circle r="5" cx="530.39" cy="493.71" fill="rgba(0, 0, 0, 1)"></circle><circle r="5" cx="540.02" cy="656.23" fill="rgba(0, 0, 0, 1)"></circle><circle r="5" cx="700.61" cy="244.47" fill="rgba(0, 0, 0, 1)"></circle><circle r="5" cx="646.05" cy="390.97" fill="rgba(0, 0, 0, 1)"></circle><circle r="5" cx="671.17" cy="529.39" fill="rgba(0, 0, 0, 1)"></circle><circle r="5" cx="687.2" cy="642.92" fill="rgba(0, 0, 0, 1)"></circle><circle r="5" cx="838.22" cy="102.21" fill="rgba(0, 0, 0, 1)"></circle><circle r="5" cx="811.74" cy="229.46" fill="rgba(0, 0, 0, 1)"></circle><circle r="5" cx="858.23" cy="409.27" fill="rgba(0, 0, 0, 1)"></circle><circle r="5" cx="839.75" cy="522.5" fill="rgba(0, 0, 0, 1)"></circle><circle r="5" cx="818.49" cy="644.41" fill="rgba(0, 0, 0, 1)"></circle><circle r="5" cx="977.74" cy="-66.73" fill="rgba(0, 0, 0, 1)"></circle><circle r="5" cx="953.74" cy="205.66" fill="rgba(0, 0, 0, 1)"></circle><circle r="5" cx="989.89" cy="351.08" fill="rgba(0, 0, 0, 1)"></circle><circle r="5" cx="977.38" cy="549.81" fill="rgba(0, 0, 0, 1)"></circle><circle r="5" cx="977.02" cy="706.76" fill="rgba(0, 0, 0, 1)"></circle><circle r="5" cx="1100.34" cy="-52.42" fill="rgba(0, 0, 0, 1)"></circle><circle r="5" cx="1136.26" cy="219.89" fill="rgba(0, 0, 0, 1)"></circle><circle r="5" cx="1105.33" cy="388.22" fill="rgba(0, 0, 0, 1)"></circle><circle r="5" cx="1143.47" cy="522.55" fill="rgba(0, 0, 0, 1)"></circle><circle r="5" cx="1152.23" cy="657.08" fill="rgba(0, 0, 0, 1)"></circle><circle r="5" cx="1244.62" cy="-89.59" fill="rgba(0, 0, 0, 1)"></circle><circle r="5" cx="1249.95" cy="37.61" fill="rgba(0, 0, 0, 1)"></circle><circle r="5" cx="1261.02" cy="230.61" fill="rgba(0, 0, 0, 1)"></circle><circle r="5" cx="1296.3" cy="372.35" fill="rgba(0, 0, 0, 1)"></circle><circle r="5" cx="1274.14" cy="532.82" fill="rgba(0, 0, 0, 1)"></circle><circle r="5" cx="1290.18" cy="665.58" fill="rgba(0, 0, 0, 1)"></circle><circle r="5" cx="1396.2" cy="-90.06" fill="rgba(0, 0, 0, 1)"></circle><circle r="5" cx="1401.72" cy="74.6" fill="rgba(0, 0, 0, 1)"></circle><circle r="5" cx="1390.13" cy="214.6" fill="rgba(0, 0, 0, 1)"></circle><circle r="5" cx="1417.85" cy="402.04" fill="rgba(0, 0, 0, 1)"></circle><circle r="5" cx="1405.01" cy="559.18" fill="rgba(0, 0, 0, 1)"></circle><circle r="5" cx="1414.5" cy="639.75" fill="rgba(0, 0, 0, 1)"></circle><circle r="5" cx="1541.33" cy="-46.08" fill="rgba(0, 0, 0, 1)"></circle><circle r="5" cx="1609.73" cy="53.45" fill="rgba(0, 0, 0, 1)"></circle><circle r="5" cx="1604.13" cy="193.85" fill="rgba(0, 0, 0, 1)"></circle><circle r="5" cx="1576.52" cy="392.24" fill="rgba(0, 0, 0, 1)"></circle><circle r="5" cx="1563.68" cy="499.13" fill="rgba(0, 0, 0, 1)"></circle><circle r="5" cx="1583.45" cy="668.95" fill="rgba(0, 0, 0, 1)"></circle><path d="M-51.85 494.22L-51.85 494.22" stroke="hsl(210, 10%, 5.1%)" stroke-width="1.5"></path><path d="M-51.85 494.22L46.58 557.23" stroke="hsl(210, 10%, 5.1%)" stroke-width="1.5"></path><path d="M-51.85 494.22L-75.26 663.39" stroke="hsl(210, 10%, 5.1%)" stroke-width="1.5"></path><path d="M-51.85 494.22L65.03 667.1" stroke="hsl(210, 10%, 5.1%)" stroke-width="1.5"></path><path d="M1293.04 -59.26L1293.04 -59.26" stroke="hsl(210, 10%, 5.1%)" stroke-width="1.5"></path><path d="M1293.04 -59.26L1395.7 66.49" stroke="hsl(210, 10%, 5.1%)" stroke-width="1.5"></path><path d="M1293.04 -59.26L1455.33 -67.08" stroke="hsl(210, 10%, 5.1%)" stroke-width="1.5"></path><path d="M1293.04 -59.26L1305.34 106.44" stroke="hsl(210, 10%, 5.1%)" stroke-width="1.5"></path><path d="M1293.04 -59.26L1139.92 77.05" stroke="hsl(210, 10%, 5.1%)" stroke-width="1.5"></path><path d="M1293.04 -59.26L1269.23 200.21" stroke="hsl(210, 10%, 5.1%)" stroke-width="1.5"></path><path d="M1305.34 106.44L1305.34 106.44" stroke="hsl(210, 10%, 5.1%)" stroke-width="1.5"></path><path d="M1305.34 106.44L1395.7 66.49" stroke="hsl(210, 10%, 5.1%)" stroke-width="1.5"></path><path d="M1305.34 106.44L1269.23 200.21" stroke="hsl(210, 10%, 5.1%)" stroke-width="1.5"></path><path d="M1308.24 711.45L1308.24 711.45" stroke="hsl(210, 10%, 5.1%)" stroke-width="1.5"></path><path d="M1308.24 711.45L1460.78 685.47" stroke="hsl(210, 10%, 5.1%)" stroke-width="1.5"></path><path d="M1308.24 711.45L1271.73 553.9" stroke="hsl(210, 10%, 5.1%)" stroke-width="1.5"></path><path d="M1308.24 711.45L1089.19 688.42" stroke="hsl(210, 10%, 5.1%)" stroke-width="1.5"></path><path d="M1460.78 685.47L1460.78 685.47" stroke="hsl(210, 10%, 5.1%)" stroke-width="1.5"></path><path d="M1460.78 685.47L1578.58 699.79" stroke="hsl(210, 10%, 5.1%)" stroke-width="1.5"></path><path d="M1460.78 685.47L1446.12 497.15" stroke="hsl(210, 10%, 5.1%)" stroke-width="1.5"></path><path d="M1460.78 685.47L1599.19 540.95" stroke="hsl(210, 10%, 5.1%)" stroke-width="1.5"></path><path d="M1584.57 381.16L1584.57 381.16" stroke="hsl(210, 10%, 5.1%)" stroke-width="1.5"></path><path d="M1584.57 381.16L1456.52 349.22" stroke="hsl(210, 10%, 5.1%)" stroke-width="1.5"></path><path d="M1584.57 381.16L1599.19 540.95" stroke="hsl(210, 10%, 5.1%)" stroke-width="1.5"></path><path d="M1578.58 699.79L1578.58 699.79" stroke="hsl(210, 10%, 5.1%)" stroke-width="1.5"></path><path d="M1578.58 699.79L1599.19 540.95" stroke="hsl(210, 10%, 5.1%)" stroke-width="1.5"></path><path d="M-75.26 663.39L-75.26 663.39" stroke="hsl(210, 10%, 5.1%)" stroke-width="1.5"></path><path d="M-75.26 663.39L65.03 667.1" stroke="hsl(210, 10%, 5.1%)" stroke-width="1.5"></path><path d="M-75.26 663.39L46.58 557.23" stroke="hsl(210, 10%, 5.1%)" stroke-width="1.5"></path><path d="M-75.26 663.39L227.12 548.92" stroke="hsl(210, 10%, 5.1%)" stroke-width="1.5"></path><path d="M46.58 557.23L46.58 557.23" stroke="hsl(210, 10%, 5.1%)" stroke-width="1.5"></path><path d="M46.58 557.23L65.03 667.1" stroke="hsl(210, 10%, 5.1%)" stroke-width="1.5"></path><path d="M65.03 667.1L65.03 667.1" stroke="hsl(210, 10%, 5.1%)" stroke-width="1.5"></path><path d="M65.03 667.1L249.84 660.29" stroke="hsl(210, 10%, 5.1%)" stroke-width="1.5"></path><path d="M65.03 667.1L227.12 548.92" stroke="hsl(210, 10%, 5.1%)" stroke-width="1.5"></path><path d="M227.12 548.92L227.12 548.92" stroke="hsl(210, 10%, 5.1%)" stroke-width="1.5"></path><path d="M227.12 548.92L249.84 660.29" stroke="hsl(210, 10%, 5.1%)" stroke-width="1.5"></path><path d="M227.12 548.92L349.04 534.26" stroke="hsl(210, 10%, 5.1%)" stroke-width="1.5"></path><path d="M227.12 548.92L46.58 557.23" stroke="hsl(210, 10%, 5.1%)" stroke-width="1.5"></path><path d="M249.84 660.29L249.84 660.29" stroke="hsl(210, 10%, 5.1%)" stroke-width="1.5"></path><path d="M249.84 660.29L409.69 655.31" stroke="hsl(210, 10%, 5.1%)" stroke-width="1.5"></path><path d="M249.84 660.29L349.04 534.26" stroke="hsl(210, 10%, 5.1%)" stroke-width="1.5"></path><path d="M349.04 534.26L349.04 534.26" stroke="hsl(210, 10%, 5.1%)" stroke-width="1.5"></path><path d="M349.04 534.26L409.69 655.31" stroke="hsl(210, 10%, 5.1%)" stroke-width="1.5"></path><path d="M409.69 655.31L409.69 655.31" stroke="hsl(210, 10%, 5.1%)" stroke-width="1.5"></path><path d="M409.69 655.31L526.51 696.63" stroke="hsl(210, 10%, 5.1%)" stroke-width="1.5"></path><path d="M409.69 655.31L531.12 495.76" stroke="hsl(210, 10%, 5.1%)" stroke-width="1.5"></path><path d="M409.69 655.31L227.12 548.92" stroke="hsl(210, 10%, 5.1%)" stroke-width="1.5"></path><path d="M531.12 495.76L531.12 495.76" stroke="hsl(210, 10%, 5.1%)" stroke-width="1.5"></path><path d="M531.12 495.76L647.96 536.98" stroke="hsl(210, 10%, 5.1%)" stroke-width="1.5"></path><path d="M531.12 495.76L349.04 534.26" stroke="hsl(210, 10%, 5.1%)" stroke-width="1.5"></path><path d="M531.12 495.76L690.12 398.65" stroke="hsl(210, 10%, 5.1%)" stroke-width="1.5"></path><path d="M531.12 495.76L526.51 696.63" stroke="hsl(210, 10%, 5.1%)" stroke-width="1.5"></path><path d="M526.51 696.63L526.51 696.63" stroke="hsl(210, 10%, 5.1%)" stroke-width="1.5"></path><path d="M526.51 696.63L647.96 536.98" stroke="hsl(210, 10%, 5.1%)" stroke-width="1.5"></path><path d="M526.51 696.63L349.04 534.26" stroke="hsl(210, 10%, 5.1%)" stroke-width="1.5"></path><path d="M690.12 398.65L690.12 398.65" stroke="hsl(210, 10%, 5.1%)" stroke-width="1.5"></path><path d="M690.12 398.65L647.96 536.98" stroke="hsl(210, 10%, 5.1%)" stroke-width="1.5"></path><path d="M690.12 398.65L860.46 399.92" stroke="hsl(210, 10%, 5.1%)" stroke-width="1.5"></path><path d="M690.12 398.65L860.17 513.37" stroke="hsl(210, 10%, 5.1%)" stroke-width="1.5"></path><path d="M647.96 536.98L647.96 536.98" stroke="hsl(210, 10%, 5.1%)" stroke-width="1.5"></path><path d="M647.96 536.98L860.17 513.37" stroke="hsl(210, 10%, 5.1%)" stroke-width="1.5"></path><path d="M647.96 536.98L832.7 687.17" stroke="hsl(210, 10%, 5.1%)" stroke-width="1.5"></path><path d="M860.46 399.92L860.46 399.92" stroke="hsl(210, 10%, 5.1%)" stroke-width="1.5"></path><path d="M860.46 399.92L951.65 391.18" stroke="hsl(210, 10%, 5.1%)" stroke-width="1.5"></path><path d="M860.46 399.92L860.17 513.37" stroke="hsl(210, 10%, 5.1%)" stroke-width="1.5"></path><path d="M860.46 399.92L1011.3 555.06" stroke="hsl(210, 10%, 5.1%)" stroke-width="1.5"></path><path d="M860.46 399.92L647.96 536.98" stroke="hsl(210, 10%, 5.1%)" stroke-width="1.5"></path><path d="M860.17 513.37L860.17 513.37" stroke="hsl(210, 10%, 5.1%)" stroke-width="1.5"></path><path d="M860.17 513.37L951.65 391.18" stroke="hsl(210, 10%, 5.1%)" stroke-width="1.5"></path><path d="M832.7 687.17L832.7 687.17" stroke="hsl(210, 10%, 5.1%)" stroke-width="1.5"></path><path d="M832.7 687.17L976.75 655.25" stroke="hsl(210, 10%, 5.1%)" stroke-width="1.5"></path><path d="M832.7 687.17L860.17 513.37" stroke="hsl(210, 10%, 5.1%)" stroke-width="1.5"></path><path d="M951.65 391.18L951.65 391.18" stroke="hsl(210, 10%, 5.1%)" stroke-width="1.5"></path><path d="M951.65 391.18L1011.3 555.06" stroke="hsl(210, 10%, 5.1%)" stroke-width="1.5"></path><path d="M951.65 391.18L1155.44 374.13" stroke="hsl(210, 10%, 5.1%)" stroke-width="1.5"></path><path d="M1011.3 555.06L1011.3 555.06" stroke="hsl(210, 10%, 5.1%)" stroke-width="1.5"></path><path d="M1011.3 555.06L976.75 655.25" stroke="hsl(210, 10%, 5.1%)" stroke-width="1.5"></path><path d="M1011.3 555.06L1132.21 489.79" stroke="hsl(210, 10%, 5.1%)" stroke-width="1.5"></path><path d="M976.75 655.25L976.75 655.25" stroke="hsl(210, 10%, 5.1%)" stroke-width="1.5"></path><path d="M976.75 655.25L1089.19 688.42" stroke="hsl(210, 10%, 5.1%)" stroke-width="1.5"></path><path d="M1139.92 77.05L1139.92 77.05" stroke="hsl(210, 10%, 5.1%)" stroke-width="1.5"></path><path d="M1139.92 77.05L1305.34 106.44" stroke="hsl(210, 10%, 5.1%)" stroke-width="1.5"></path><path d="M1139.92 77.05L1269.23 200.21" stroke="hsl(210, 10%, 5.1%)" stroke-width="1.5"></path><path d="M1139.92 77.05L1395.7 66.49" stroke="hsl(210, 10%, 5.1%)" stroke-width="1.5"></path><path d="M1155.44 374.13L1155.44 374.13" stroke="hsl(210, 10%, 5.1%)" stroke-width="1.5"></path><path d="M1155.44 374.13L1132.21 489.79" stroke="hsl(210, 10%, 5.1%)" stroke-width="1.5"></path><path d="M1155.44 374.13L1297.21 367.65" stroke="hsl(210, 10%, 5.1%)" stroke-width="1.5"></path><path d="M1155.44 374.13L1269.23 200.21" stroke="hsl(210, 10%, 5.1%)" stroke-width="1.5"></path><path d="M1132.21 489.79L1132.21 489.79" stroke="hsl(210, 10%, 5.1%)" stroke-width="1.5"></path><path d="M1132.21 489.79L1271.73 553.9" stroke="hsl(210, 10%, 5.1%)" stroke-width="1.5"></path><path d="M1132.21 489.79L1089.19 688.42" stroke="hsl(210, 10%, 5.1%)" stroke-width="1.5"></path><path d="M1089.19 688.42L1089.19 688.42" stroke="hsl(210, 10%, 5.1%)" stroke-width="1.5"></path><path d="M1089.19 688.42L1011.3 555.06" stroke="hsl(210, 10%, 5.1%)" stroke-width="1.5"></path><path d="M1089.19 688.42L1271.73 553.9" stroke="hsl(210, 10%, 5.1%)" stroke-width="1.5"></path><path d="M1269.23 200.21L1269.23 200.21" stroke="hsl(210, 10%, 5.1%)" stroke-width="1.5"></path><path d="M1269.23 200.21L1394.88 261.23" stroke="hsl(210, 10%, 5.1%)" stroke-width="1.5"></path><path d="M1269.23 200.21L1297.21 367.65" stroke="hsl(210, 10%, 5.1%)" stroke-width="1.5"></path><path d="M1269.23 200.21L1395.7 66.49" stroke="hsl(210, 10%, 5.1%)" stroke-width="1.5"></path><path d="M1297.21 367.65L1297.21 367.65" stroke="hsl(210, 10%, 5.1%)" stroke-width="1.5"></path><path d="M1297.21 367.65L1394.88 261.23" stroke="hsl(210, 10%, 5.1%)" stroke-width="1.5"></path><path d="M1297.21 367.65L1456.52 349.22" stroke="hsl(210, 10%, 5.1%)" stroke-width="1.5"></path><path d="M1297.21 367.65L1271.73 553.9" stroke="hsl(210, 10%, 5.1%)" stroke-width="1.5"></path><path d="M1297.21 367.65L1446.12 497.15" stroke="hsl(210, 10%, 5.1%)" stroke-width="1.5"></path><path d="M1271.73 553.9L1271.73 553.9" stroke="hsl(210, 10%, 5.1%)" stroke-width="1.5"></path><path d="M1271.73 553.9L1446.12 497.15" stroke="hsl(210, 10%, 5.1%)" stroke-width="1.5"></path><path d="M1271.73 553.9L1155.44 374.13" stroke="hsl(210, 10%, 5.1%)" stroke-width="1.5"></path><path d="M1455.33 -67.08L1455.33 -67.08" stroke="hsl(210, 10%, 5.1%)" stroke-width="1.5"></path><path d="M1455.33 -67.08L1582.41 -45.35" stroke="hsl(210, 10%, 5.1%)" stroke-width="1.5"></path><path d="M1455.33 -67.08L1395.7 66.49" stroke="hsl(210, 10%, 5.1%)" stroke-width="1.5"></path><path d="M1455.33 -67.08L1592.78 83.84" stroke="hsl(210, 10%, 5.1%)" stroke-width="1.5"></path><path d="M1455.33 -67.08L1305.34 106.44" stroke="hsl(210, 10%, 5.1%)" stroke-width="1.5"></path><path d="M1455.33 -67.08L1269.23 200.21" stroke="hsl(210, 10%, 5.1%)" stroke-width="1.5"></path><path d="M1395.7 66.49L1395.7 66.49" stroke="hsl(210, 10%, 5.1%)" stroke-width="1.5"></path><path d="M1395.7 66.49L1394.88 261.23" stroke="hsl(210, 10%, 5.1%)" stroke-width="1.5"></path><path d="M1394.88 261.23L1394.88 261.23" stroke="hsl(210, 10%, 5.1%)" stroke-width="1.5"></path><path d="M1394.88 261.23L1456.52 349.22" stroke="hsl(210, 10%, 5.1%)" stroke-width="1.5"></path><path d="M1394.88 261.23L1305.34 106.44" stroke="hsl(210, 10%, 5.1%)" stroke-width="1.5"></path><path d="M1394.88 261.23L1584.57 381.16" stroke="hsl(210, 10%, 5.1%)" stroke-width="1.5"></path><path d="M1456.52 349.22L1456.52 349.22" stroke="hsl(210, 10%, 5.1%)" stroke-width="1.5"></path><path d="M1446.12 497.15L1446.12 497.15" stroke="hsl(210, 10%, 5.1%)" stroke-width="1.5"></path><path d="M1446.12 497.15L1456.52 349.22" stroke="hsl(210, 10%, 5.1%)" stroke-width="1.5"></path><path d="M1446.12 497.15L1599.19 540.95" stroke="hsl(210, 10%, 5.1%)" stroke-width="1.5"></path><path d="M1446.12 497.15L1584.57 381.16" stroke="hsl(210, 10%, 5.1%)" stroke-width="1.5"></path><path d="M1582.41 -45.35L1582.41 -45.35" stroke="hsl(210, 10%, 5.1%)" stroke-width="1.5"></path><path d="M1582.41 -45.35L1592.78 83.84" stroke="hsl(210, 10%, 5.1%)" stroke-width="1.5"></path><path d="M1582.41 -45.35L1395.7 66.49" stroke="hsl(210, 10%, 5.1%)" stroke-width="1.5"></path><path d="M1582.41 -45.35L1293.04 -59.26" stroke="hsl(210, 10%, 5.1%)" stroke-width="1.5"></path><path d="M1582.41 -45.35L1305.34 106.44" stroke="hsl(210, 10%, 5.1%)" stroke-width="1.5"></path><path d="M1592.78 83.84L1592.78 83.84" stroke="hsl(210, 10%, 5.1%)" stroke-width="1.5"></path><path d="M1592.78 83.84L1395.7 66.49" stroke="hsl(210, 10%, 5.1%)" stroke-width="1.5"></path><path d="M1599.19 540.95L1599.19 540.95" stroke="hsl(210, 10%, 5.1%)" stroke-width="1.5"></path><path d="M1599.19 540.95L1456.52 349.22" stroke="hsl(210, 10%, 5.1%)" stroke-width="1.5"></path><circle r="25" cx="-51.85" cy="494.22" fill="url(#SvgjsRadialGradient4355)"></circle><circle r="25" cx="1293.04" cy="-59.26" fill="url(#SvgjsRadialGradient4355)"></circle><circle r="25" cx="1305.34" cy="106.44" fill="url(#SvgjsRadialGradient4355)"></circle><circle r="25" cx="1308.24" cy="711.45" fill="url(#SvgjsRadialGradient4355)"></circle><circle r="25" cx="1460.78" cy="685.47" fill="url(#SvgjsRadialGradient4355)"></circle><circle r="25" cx="1584.57" cy="381.16" fill="url(#SvgjsRadialGradient4355)"></circle><circle r="25" cx="1578.58" cy="699.79" fill="url(#SvgjsRadialGradient4355)"></circle><circle r="5" cx="-75.26" cy="663.39" fill="#848585"></circle><circle r="5" cx="46.58" cy="557.23" fill="#848585"></circle><circle r="5" cx="65.03" cy="667.1" fill="#848585"></circle><circle r="5" cx="227.12" cy="548.92" fill="#848585"></circle><circle r="5" cx="249.84" cy="660.29" fill="#848585"></circle><circle r="5" cx="349.04" cy="534.26" fill="#848585"></circle><circle r="5" cx="409.69" cy="655.31" fill="#848585"></circle><circle r="5" cx="531.12" cy="495.76" fill="#848585"></circle><circle r="5" cx="526.51" cy="696.63" fill="#848585"></circle><circle r="5" cx="690.12" cy="398.65" fill="#848585"></circle><circle r="5" cx="647.96" cy="536.98" fill="#848585"></circle><circle r="5" cx="860.46" cy="399.92" fill="#848585"></circle><circle r="5" cx="860.17" cy="513.37" fill="#848585"></circle><circle r="5" cx="832.7" cy="687.17" fill="#848585"></circle><circle r="5" cx="951.65" cy="391.18" fill="#848585"></circle><circle r="5" cx="1011.3" cy="555.06" fill="#848585"></circle><circle r="5" cx="976.75" cy="655.25" fill="#848585"></circle><circle r="5" cx="1139.92" cy="77.05" fill="#848585"></circle><circle r="5" cx="1155.44" cy="374.13" fill="#848585"></circle><circle r="5" cx="1132.21" cy="489.79" fill="#848585"></circle><circle r="5" cx="1089.19" cy="688.42" fill="#848585"></circle><circle r="5" cx="1269.23" cy="200.21" fill="#848585"></circle><circle r="5" cx="1297.21" cy="367.65" fill="#848585"></circle><circle r="5" cx="1271.73" cy="553.9" fill="#848585"></circle><circle r="5" cx="1455.33" cy="-67.08" fill="#848585"></circle><circle r="5" cx="1395.7" cy="66.49" fill="#848585"></circle><circle r="5" cx="1394.88" cy="261.23" fill="#848585"></circle><circle r="5" cx="1456.52" cy="349.22" fill="#848585"></circle><circle r="5" cx="1446.12" cy="497.15" fill="#848585"></circle><circle r="5" cx="1582.41" cy="-45.35" fill="#848585"></circle><circle r="5" cx="1592.78" cy="83.84" fill="#848585"></circle><circle r="5" cx="1599.19" cy="540.95" fill="#848585"></circle></g><defs><mask id="SvgjsMask4353"><rect width="1440" height="560" fill="#ffffff"></rect></mask><linearGradient x1="0%" y1="50%" x2="100%" y2="50%" gradientUnits="userSpaceOnUse" id="SvgjsLinearGradient4354"><stop stop-color="rgba(0, 0, 0, 0.15)" offset="0"></stop><stop stop-color="rgba(148, 154, 153, 1)" offset="0.98"></stop></linearGradient><radialGradient id="SvgjsRadialGradient4355"><stop stop-color="#ffffff" offset="0.1"></stop><stop stop-color="rgba(9, 10, 11, 1)" offset="0.2"></stop><stop stop-color="rgba(9, 10, 11, 0)" offset="1"></stop></radialGradient></defs></svg>